<?xml version="1.0" ?>
<!DOCTYPE svg PUBLIC '-//W3C//DTD SVG 1.1//EN' 'http://www.w3.org/Graphics/SVG/1.1/DTD/svg11.dtd'>
<!-- original color was #231F20 -->
<svg enable-background="new 0 0 164 174" height="174px" id="Layer_1" version="1.1" viewBox="0 0 164 174" width="164px" xml:space="preserve" xmlns="http://www.w3.org/2000/svg" xmlns:xlink="http://www.w3.org/1999/xlink">
    <g><path d="M82-0.5C66.408-0.5,53.509,11,51.329,26h61.342C110.49,11,97.592-0.5,82-0.5z" fill="#FFFFFF"/><path
        d="M59,34H39.049L26.756,13.421C25.445,11.228,23.123,10,20.741,10c-1.222,0-2.459,0.32-3.584,0.993   c-3.318,1.983-4.401,6.293-2.417,9.611L31.107,48h10.878c-11.383,9.726-19.371,23.455-21.44,39H5c-2.761,0-5,2.238-5,5v3   c0,2.762,2.239,5,5,5h15.223c1.136,13.76,6.903,26.244,15.626,36h-4.742l-16.368,27.385c-1.984,3.318-0.901,7.616,2.417,9.6   c1.125,0.673,2.363,0.992,3.584,0.992c2.382,0,4.705-1.216,6.015-3.409L39.049,150h14.761c7.121,3.724,14.976,6.106,23.189,6.781   V150v-14v-36V87V48V34h-5.873H59z"
        fill="#FFFFFF"/><path
        d="M159,87h-15.525c-1.998-15.545-9.731-29.274-21.037-39h10.89l16.381-26.549   c2.031-3.29,1.011-7.608-2.279-9.639c-3.291-2.03-7.604-1-9.633,2.289L125.517,34H95h-1.959H87v14v39v13v36v14v6.781   c8.479-0.675,16.457-3.058,23.618-6.781h14.898l12.279,19.891c2.029,3.289,6.342,4.31,9.633,2.279   c3.29-2.03,4.311-6.344,2.279-9.633L133.327,136h-4.814c8.608-9.756,14.178-22.24,15.273-36H159c2.762,0,5-2.238,5-5v-3   C164,89.238,161.762,87,159,87z"
        fill="#FFFFFF"/></g>
</svg>
